<?xml version="1.0"?>
<svg width="3900" height="800" viewBox="-8 -8 4017 864" xmlns="http://www.w3.org/2000/svg" xmlns:xlink="http://www.w3.org/1999/xlink">
  <g id="grid">
    <line x1="0" y1="0" x2="0" y2="800" stroke="black" stroke-width="1" stroke-dasharray="4 2"/>
    <line x1="100" y1="0" x2="100" y2="800" stroke="black" stroke-width="1" stroke-dasharray="4 2"/>
    <line x1="200" y1="0" x2="200" y2="800" stroke="black" stroke-width="1" stroke-dasharray="4 2"/>
    <line x1="300" y1="0" x2="300" y2="800" stroke="black" stroke-width="1" stroke-dasharray="4 2"/>
    <line x1="400" y1="0" x2="400" y2="800" stroke="black" stroke-width="1" stroke-dasharray="4 2"/>
    <line x1="500" y1="0" x2="500" y2="800" stroke="black" stroke-width="1" stroke-dasharray="4 2"/>
    <line x1="600" y1="0" x2="600" y2="800" stroke="black" stroke-width="1" stroke-dasharray="4 2"/>
    <line x1="700" y1="0" x2="700" y2="800" stroke="black" stroke-width="1" stroke-dasharray="4 2"/>
    <line x1="800" y1="0" x2="800" y2="800" stroke="black" stroke-width="1" stroke-dasharray="4 2"/>
    <line x1="900" y1="0" x2="900" y2="800" stroke="black" stroke-width="1" stroke-dasharray="4 2"/>
    <line x1="1000" y1="0" x2="1000" y2="800" stroke="black" stroke-width="1" stroke-dasharray="4 2"/>
    <line x1="1100" y1="0" x2="1100" y2="800" stroke="black" stroke-width="1" stroke-dasharray="4 2"/>
    <line x1="1200" y1="0" x2="1200" y2="800" stroke="black" stroke-width="1" stroke-dasharray="4 2"/>
    <line x1="1300" y1="0" x2="1300" y2="800" stroke="black" stroke-width="1" stroke-dasharray="4 2"/>
    <line x1="1400" y1="0" x2="1400" y2="800" stroke="black" stroke-width="1" stroke-dasharray="4 2"/>
    <line x1="1500" y1="0" x2="1500" y2="800" stroke="black" stroke-width="1" stroke-dasharray="4 2"/>
    <line x1="1600" y1="0" x2="1600" y2="800" stroke="black" stroke-width="1" stroke-dasharray="4 2"/>
    <line x1="1700" y1="0" x2="1700" y2="800" stroke="black" stroke-width="1" stroke-dasharray="4 2"/>
    <line x1="1800" y1="0" x2="1800" y2="800" stroke="black" stroke-width="1" stroke-dasharray="4 2"/>
    <line x1="1900" y1="0" x2="1900" y2="800" stroke="black" stroke-width="1" stroke-dasharray="4 2"/>
    <line x1="2000" y1="0" x2="2000" y2="800" stroke="black" stroke-width="1" stroke-dasharray="4 2"/>
    <line x1="2100" y1="0" x2="2100" y2="800" stroke="black" stroke-width="1" stroke-dasharray="4 2"/>
    <line x1="2200" y1="0" x2="2200" y2="800" stroke="black" stroke-width="1" stroke-dasharray="4 2"/>
    <line x1="2300" y1="0" x2="2300" y2="800" stroke="black" stroke-width="1" stroke-dasharray="4 2"/>
    <line x1="2400" y1="0" x2="2400" y2="800" stroke="black" stroke-width="1" stroke-dasharray="4 2"/>
    <line x1="2500" y1="0" x2="2500" y2="800" stroke="black" stroke-width="1" stroke-dasharray="4 2"/>
    <line x1="2600" y1="0" x2="2600" y2="800" stroke="black" stroke-width="1" stroke-dasharray="4 2"/>
    <line x1="2700" y1="0" x2="2700" y2="800" stroke="black" stroke-width="1" stroke-dasharray="4 2"/>
    <line x1="2800" y1="0" x2="2800" y2="800" stroke="black" stroke-width="1" stroke-dasharray="4 2"/>
    <line x1="2900" y1="0" x2="2900" y2="800" stroke="black" stroke-width="1" stroke-dasharray="4 2"/>
    <line x1="3000" y1="0" x2="3000" y2="800" stroke="black" stroke-width="1" stroke-dasharray="4 2"/>
    <line x1="3100" y1="0" x2="3100" y2="800" stroke="black" stroke-width="1" stroke-dasharray="4 2"/>
    <line x1="3200" y1="0" x2="3200" y2="800" stroke="black" stroke-width="1" stroke-dasharray="4 2"/>
    <line x1="3300" y1="0" x2="3300" y2="800" stroke="black" stroke-width="1" stroke-dasharray="4 2"/>
    <line x1="3400" y1="0" x2="3400" y2="800" stroke="black" stroke-width="1" stroke-dasharray="4 2"/>
    <line x1="3500" y1="0" x2="3500" y2="800" stroke="black" stroke-width="1" stroke-dasharray="4 2"/>
    <line x1="3600" y1="0" x2="3600" y2="800" stroke="black" stroke-width="1" stroke-dasharray="4 2"/>
    <line x1="3700" y1="0" x2="3700" y2="800" stroke="black" stroke-width="1" stroke-dasharray="4 2"/>
    <line x1="3800" y1="0" x2="3800" y2="800" stroke="black" stroke-width="1" stroke-dasharray="4 2"/>
    <line x1="3900" y1="0" x2="3900" y2="800" stroke="black" stroke-width="1" stroke-dasharray="4 2"/>
    <line x1="0" y1="0" x2="3900" y2="0" stroke="black" stroke-width="1" stroke-dasharray="4 2"/>
    <line x1="0" y1="100" x2="3900" y2="100" stroke="black" stroke-width="1" stroke-dasharray="4 2"/>
    <line x1="0" y1="200" x2="3900" y2="200" stroke="black" stroke-width="1" stroke-dasharray="4 2"/>
    <line x1="0" y1="300" x2="3900" y2="300" stroke="black" stroke-width="1" stroke-dasharray="4 2"/>
    <line x1="0" y1="400" x2="3900" y2="400" stroke="black" stroke-width="1" stroke-dasharray="4 2"/>
    <line x1="0" y1="500" x2="3900" y2="500" stroke="black" stroke-width="1" stroke-dasharray="4 2"/>
    <line x1="0" y1="600" x2="3900" y2="600" stroke="black" stroke-width="1" stroke-dasharray="4 2"/>
    <line x1="0" y1="700" x2="3900" y2="700" stroke="black" stroke-width="1" stroke-dasharray="4 2"/>
    <line x1="0" y1="800" x2="3900" y2="800" stroke="black" stroke-width="1" stroke-dasharray="4 2"/>
  </g>
  <g id="steps">
    <line x1="0" y1="800" x2="100" y2="700" stroke="red" stroke-width="3" stroke-dasharray="none"/>
    <line x1="100" y1="700" x2="200" y2="700" stroke="red" stroke-width="3" stroke-dasharray="none"/>
    <line x1="200" y1="700" x2="300" y2="600" stroke="red" stroke-width="3" stroke-dasharray="none"/>
    <line x1="300" y1="600" x2="400" y2="700" stroke="red" stroke-width="3" stroke-dasharray="none"/>
    <line x1="400" y1="700" x2="500" y2="800" stroke="red" stroke-width="3" stroke-dasharray="none"/>
    <line x1="500" y1="800" x2="600" y2="800" stroke="red" stroke-width="3" stroke-dasharray="none"/>
    <line x1="600" y1="800" x2="700" y2="700" stroke="red" stroke-width="3" stroke-dasharray="none"/>
    <line x1="700" y1="700" x2="800" y2="600" stroke="red" stroke-width="3" stroke-dasharray="none"/>
    <line x1="800" y1="600" x2="900" y2="700" stroke="red" stroke-width="3" stroke-dasharray="none"/>
    <line x1="900" y1="700" x2="1000" y2="800" stroke="red" stroke-width="3" stroke-dasharray="none"/>
    <line x1="1000" y1="800" x2="1100" y2="700" stroke="red" stroke-width="3" stroke-dasharray="none"/>
    <line x1="1100" y1="700" x2="1200" y2="600" stroke="red" stroke-width="3" stroke-dasharray="none"/>
    <line x1="1200" y1="600" x2="1300" y2="600" stroke="red" stroke-width="3" stroke-dasharray="none"/>
    <line x1="1300" y1="600" x2="1400" y2="500" stroke="red" stroke-width="3" stroke-dasharray="none"/>
    <line x1="1400" y1="500" x2="1500" y2="600" stroke="red" stroke-width="3" stroke-dasharray="none"/>
    <line x1="1500" y1="600" x2="1600" y2="700" stroke="red" stroke-width="3" stroke-dasharray="none"/>
    <line x1="1600" y1="700" x2="1700" y2="800" stroke="red" stroke-width="3" stroke-dasharray="none"/>
    <line x1="1700" y1="800" x2="1800" y2="700" stroke="red" stroke-width="3" stroke-dasharray="none"/>
    <line x1="1800" y1="700" x2="1900" y2="600" stroke="red" stroke-width="3" stroke-dasharray="none"/>
    <line x1="1900" y1="600" x2="2000" y2="500" stroke="red" stroke-width="3" stroke-dasharray="none"/>
    <line x1="2000" y1="500" x2="2100" y2="500" stroke="red" stroke-width="3" stroke-dasharray="none"/>
    <line x1="2100" y1="500" x2="2200" y2="400" stroke="red" stroke-width="3" stroke-dasharray="none"/>
    <line x1="2200" y1="400" x2="2300" y2="300" stroke="red" stroke-width="3" stroke-dasharray="none"/>
    <line x1="2300" y1="300" x2="2400" y2="200" stroke="red" stroke-width="3" stroke-dasharray="none"/>
    <line x1="2400" y1="200" x2="2500" y2="200" stroke="red" stroke-width="3" stroke-dasharray="none"/>
    <line x1="2500" y1="200" x2="2600" y2="100" stroke="red" stroke-width="3" stroke-dasharray="none"/>
    <line x1="2600" y1="100" x2="2700" y2="0" stroke="red" stroke-width="3" stroke-dasharray="none"/>
    <line x1="2700" y1="0" x2="2800" y2="100" stroke="red" stroke-width="3" stroke-dasharray="none"/>
    <line x1="2800" y1="100" x2="2900" y2="200" stroke="red" stroke-width="3" stroke-dasharray="none"/>
    <line x1="2900" y1="200" x2="3000" y2="300" stroke="red" stroke-width="3" stroke-dasharray="none"/>
    <line x1="3000" y1="300" x2="3100" y2="300" stroke="red" stroke-width="3" stroke-dasharray="none"/>
    <line x1="3100" y1="300" x2="3200" y2="400" stroke="red" stroke-width="3" stroke-dasharray="none"/>
    <line x1="3200" y1="400" x2="3300" y2="500" stroke="red" stroke-width="3" stroke-dasharray="none"/>
    <line x1="3300" y1="500" x2="3400" y2="500" stroke="red" stroke-width="3" stroke-dasharray="none"/>
    <line x1="3400" y1="500" x2="3500" y2="600" stroke="red" stroke-width="3" stroke-dasharray="none"/>
    <line x1="3500" y1="600" x2="3600" y2="600" stroke="red" stroke-width="3" stroke-dasharray="none"/>
    <line x1="3600" y1="600" x2="3700" y2="600" stroke="red" stroke-width="3" stroke-dasharray="none"/>
    <line x1="3700" y1="600" x2="3800" y2="700" stroke="red" stroke-width="3" stroke-dasharray="none"/>
    <line x1="3800" y1="700" x2="3900" y2="800" stroke="red" stroke-width="3" stroke-dasharray="none"/>
  </g>
  <g id="points">
    <circle cx="0" cy="800" r="7" fill="blue"/>
    <circle cx="100" cy="700" r="7" fill="blue"/>
    <circle cx="200" cy="700" r="7" fill="blue"/>
    <circle cx="300" cy="600" r="7" fill="blue"/>
    <circle cx="400" cy="700" r="7" fill="blue"/>
    <circle cx="500" cy="800" r="7" fill="blue"/>
    <circle cx="600" cy="800" r="7" fill="blue"/>
    <circle cx="700" cy="700" r="7" fill="blue"/>
    <circle cx="800" cy="600" r="7" fill="blue"/>
    <circle cx="900" cy="700" r="7" fill="blue"/>
    <circle cx="1000" cy="800" r="7" fill="blue"/>
    <circle cx="1100" cy="700" r="7" fill="blue"/>
    <circle cx="1200" cy="600" r="7" fill="blue"/>
    <circle cx="1300" cy="600" r="7" fill="blue"/>
    <circle cx="1400" cy="500" r="7" fill="blue"/>
    <circle cx="1500" cy="600" r="7" fill="blue"/>
    <circle cx="1600" cy="700" r="7" fill="blue"/>
    <circle cx="1700" cy="800" r="7" fill="blue"/>
    <circle cx="1800" cy="700" r="7" fill="blue"/>
    <circle cx="1900" cy="600" r="7" fill="blue"/>
    <circle cx="2000" cy="500" r="7" fill="blue"/>
    <circle cx="2100" cy="500" r="7" fill="blue"/>
    <circle cx="2200" cy="400" r="7" fill="blue"/>
    <circle cx="2300" cy="300" r="7" fill="blue"/>
    <circle cx="2400" cy="200" r="7" fill="blue"/>
    <circle cx="2500" cy="200" r="7" fill="blue"/>
    <circle cx="2600" cy="100" r="7" fill="blue"/>
    <circle cx="2700" cy="0" r="7" fill="blue"/>
    <circle cx="2800" cy="100" r="7" fill="blue"/>
    <circle cx="2900" cy="200" r="7" fill="blue"/>
    <circle cx="3000" cy="300" r="7" fill="blue"/>
    <circle cx="3100" cy="300" r="7" fill="blue"/>
    <circle cx="3200" cy="400" r="7" fill="blue"/>
    <circle cx="3300" cy="500" r="7" fill="blue"/>
    <circle cx="3400" cy="500" r="7" fill="blue"/>
    <circle cx="3500" cy="600" r="7" fill="blue"/>
    <circle cx="3600" cy="600" r="7" fill="blue"/>
    <circle cx="3700" cy="600" r="7" fill="blue"/>
    <circle cx="3800" cy="700" r="7" fill="blue"/>
    <circle cx="3900" cy="800" r="7" fill="blue"/>
  </g>
</svg>
